<?xml version="1.0" encoding="UTF-8"?>
<svg version="1.1" xmlns="http://www.w3.org/2000/svg" width="500" height="500">
<path d="M0 0 C165 0 330 0 500 0 C500 165 500 330 500 500 C335 500 170 500 0 500 C0 335 0 170 0 0 Z " fill="#000000" transform="translate(0,0)"/>
<path d="M0 0 C12.87 0 25.74 0 39 0 C39 70.29 39 140.58 39 213 C26.13 213 13.26 213 0 213 C0 184.62 0 156.24 0 127 C-17.82 127 -35.64 127 -54 127 C-54 114.79 -54 102.58 -54 90 C-36.18 90 -18.36 90 0 90 C0 60.3 0 30.6 0 0 Z " fill="#39B5FD" transform="translate(312,124)"/>
<path d="M0 0 C0 10.89 0 21.78 0 33 C-4.29 33.33 -8.58 33.66 -13 34 C-22.82112816 35.87935169 -31.60615397 39.7902519 -37.5625 48.125 C-40.11842888 53.31930707 -39.71460048 59.39868717 -39 65 C-35.4206282 72.55645158 -28.93470432 75.82255726 -21.48046875 78.83203125 C-16.44120347 80.52309782 -11.37954095 81.49403401 -6.15234375 82.421875 C-3 83 -3 83 0 84 C0 95.22 0 106.44 0 118 C-23.17609087 118 -47.80320288 111.13372239 -65 95 C-74.64194376 85.06072757 -77.1914254 71.73149123 -77.3125 58.4375 C-77.34150391 57.40302734 -77.37050781 56.36855469 -77.40039062 55.30273438 C-77.50603088 42.32523507 -72.50737416 31.18255788 -63.81640625 21.58984375 C-46.00142404 4.53543549 -24.02802116 0 0 0 Z " fill="#FDFDFD" transform="translate(235,124)"/>
<path d="M0 0 C0.474375 1.11375 0.94875 2.2275 1.4375 3.375 C7.04136198 14.4455665 17.01232571 22.7533172 28.6875 26.8125 C30.12046571 27.22444605 31.55788036 27.62134289 33 28 C34.85625 28.556875 34.85625 28.556875 36.75 29.125 C42.41504991 30.2913338 48.23316882 30.5563976 54 31 C54 42.22 54 53.44 54 65 C28.16121347 65 4.77374827 61.74659437 -14.75390625 43.25 C-22.78402222 35.20591861 -29.08908237 27.16535073 -32 16 C-4.06349206 0 -4.06349206 0 0 0 Z " fill="#FDFDFD" transform="translate(181,271)"/>
<path d="M0 0 C2.64 0 5.28 0 8 0 C8 85.47 8 170.94 8 259 C5.36 259 2.72 259 0 259 C0 173.53 0 88.06 0 0 Z " fill="#DCDCDC" transform="translate(244,101)"/>
<path d="M0 0 C0.13535156 0.58007812 0.27070313 1.16015625 0.41015625 1.7578125 C2.14003691 8.03510401 4.38835561 11.61925452 10 15 C13.92906665 16.87346225 17.92738763 18.46860897 22 20 C23.66791744 20.66353119 25.33502107 21.32912937 27 22 C22.32533663 27.62303757 17.32234333 32.79741554 12.125 37.9375 C11.34125 38.71673828 10.5575 39.49597656 9.75 40.29882812 C7.83561419 42.20154085 5.91891966 44.10186171 4 46 C0.13671373 44.4152642 -2.28876923 41.94043113 -5.203125 38.9921875 C-5.6857782 38.50670441 -6.1684314 38.02122131 -6.66571045 37.52102661 C-8.19858562 35.97700134 -9.72434004 34.42615176 -11.25 32.875 C-12.29120361 31.82375991 -13.33286541 30.77297343 -14.375 29.72265625 C-16.92199464 27.15366996 -19.46265177 24.57851839 -22 22 C-17.62374788 16.76619303 -13.02454503 11.87123062 -8.1875 7.0625 C-7.50751953 6.37865234 -6.82753906 5.69480469 -6.12695312 4.99023438 C-5.48048828 4.34505859 -4.83402344 3.69988281 -4.16796875 3.03515625 C-3.58297607 2.4512915 -2.9979834 1.86742676 -2.39526367 1.26586914 C-1 0 -1 0 0 0 Z " fill="#FEFEFE" transform="translate(195,184)"/>
<path d="M0 0 C0.02533375 7.75959578 0.04286004 15.51918092 0.05493164 23.27880859 C0.05996357 25.91911213 0.06678971 28.55941287 0.07543945 31.19970703 C0.08755479 34.99252002 0.0932397 38.7852962 0.09765625 42.578125 C0.10281754 43.76053772 0.10797882 44.94295044 0.11329651 46.16119385 C0.11337204 47.26203308 0.11344757 48.36287231 0.11352539 49.49707031 C0.115746 50.46525696 0.11796661 51.4334436 0.12025452 52.43096924 C0.01048862 54.77592875 -0.33260966 56.75769409 -1 59 C-0.67 59 -0.34 59 0 59 C0.17321862 65.17457769 0.30015058 71.34773795 0.38452148 77.52416992 C0.41969477 79.62435543 0.46744308 81.72436989 0.52807617 83.82397461 C0.61313411 86.84531831 0.65271864 89.86439513 0.68359375 92.88671875 C0.71972275 93.82335861 0.75585175 94.75999847 0.79307556 95.72502136 C0.79360428 96.60555679 0.794133 97.48609222 0.79467773 98.39331055 C0.81022202 99.16386276 0.8257663 99.93441498 0.84178162 100.72831726 C-0.52440787 104.41519878 -3.75011015 105.98562482 -7 108 C-7.13903156 94.80461213 -7.24563778 81.60939855 -7.31087303 68.41342735 C-7.34218317 62.28593446 -7.38465194 56.15894273 -7.45263672 50.03173828 C-7.51783795 44.11838482 -7.55370843 38.20551334 -7.56926346 32.29182816 C-7.58034823 30.03592974 -7.6019945 27.78005765 -7.63438034 25.52436447 C-7.67795218 22.36380811 -7.68393356 19.20524207 -7.68115234 16.04443359 C-7.702724 15.11222992 -7.72429565 14.18002625 -7.746521 13.21957397 C-7.70179062 8.52042633 -7.37828615 5.81558672 -4.01992798 2.3722229 C-1 0 -1 0 0 0 Z " fill="#FEFEFE" transform="translate(251,180)"/>
<path d="M0 0 C0 3 0 3 -1.8359375 5.17651367 C-2.67382812 5.99869385 -3.51171875 6.82087402 -4.375 7.66796875 C-5.27734375 8.56064453 -6.1796875 9.45332031 -7.109375 10.37304688 C-8.0727573 11.31136157 -9.03630108 12.2495105 -10 13.1875 C-10.96422346 14.13667769 -11.92777392 15.08653956 -12.890625 16.03710938 C-15.25386746 18.36490319 -17.62381482 20.68543133 -20 23 C-15.32533663 28.62303757 -10.32234333 33.79741554 -5.125 38.9375 C-4.34125 39.71673828 -3.5575 40.49597656 -2.75 41.29882812 C-0.83561419 43.20154085 1.08108034 45.10186171 3 47 C6.66752005 45.4608199 8.98580573 43.24514548 11.765625 40.4296875 C12.65507812 39.53378906 13.54453125 38.63789063 14.4609375 37.71484375 C15.38132813 36.77769531 16.30171875 35.84054688 17.25 34.875 C18.19484856 33.92011363 19.14015633 32.96568141 20.0859375 32.01171875 C22.39518338 29.67890913 24.69963203 27.34155914 27 25 C26.505 24.01 26.505 24.01 26 23 C28.64 23.33 31.28 23.66 34 24 C34 24.33 34 24.66 34 25 C32.68201416 25.3400708 32.68201416 25.3400708 31.33740234 25.68701172 C27.4565974 27.21378341 25.50701169 29.0339998 22.6015625 32.0078125 C22.1217392 32.49329559 21.64191589 32.97877869 21.14755249 33.47897339 C19.6303116 35.01844877 18.12764448 36.57128777 16.625 38.125 C15.59338271 39.17669901 14.56083921 40.22749034 13.52734375 41.27734375 C11.0074307 43.84115143 8.50038935 46.41713143 6 49 C7.32 50.98 8.64 52.96 10 55 C-4.72378152 51.9018095 -19.91538911 43.9458469 -28.6875 31.3359375 C-32.54635136 24.46810085 -35.44934407 16.89273502 -36 9 C-31.43969176 12.80475422 -27.14910608 16.74969621 -23 21 C-19.43235715 19.48623919 -17.16293713 17.39486871 -14.453125 14.6484375 C-13.60878906 13.79765625 -12.76445312 12.946875 -11.89453125 12.0703125 C-10.58548828 10.73613281 -10.58548828 10.73613281 -9.25 9.375 C-7.91775391 8.02921875 -7.91775391 8.02921875 -6.55859375 6.65625 C-4.36783031 4.44192996 -2.18187237 2.22307565 0 0 Z " fill="#F3F3F3" transform="translate(194,182)"/>
<path d="M0 0 C0 16.5 0 33 0 50 C-0.66 50 -1.32 50 -2 50 C-2.33 51.32 -2.66 52.64 -3 54 C-2.01 53.34 -1.02 52.68 0 52 C0 59.92 0 67.84 0 76 C-2.31 76 -4.62 76 -7 76 C-7.13920196 66.97691415 -7.24572201 57.95419953 -7.31087303 48.93027306 C-7.34214738 44.73974986 -7.38454658 40.54996281 -7.45263672 36.35986328 C-7.51797195 32.31383692 -7.55373536 28.26851722 -7.56926346 24.22200394 C-7.58032475 22.6805878 -7.60192607 21.13920908 -7.63438034 19.59809494 C-7.87859497 7.51768949 -7.87859497 7.51768949 -5.65948486 3.68438721 C-2.07265827 0 -2.07265827 0 0 0 Z " fill="#FEFEFE" transform="translate(251,284)"/>
<path d="M0 0 C1.5 1.375 1.5 1.375 3 3 C3 3.66 3 4.32 3 5 C3.5887793 5.26280762 4.17755859 5.52561523 4.78417969 5.79638672 C7.10339241 7.05616181 8.60949403 8.38004021 10.453125 10.2578125 C11.071875 10.88300781 11.690625 11.50820313 12.328125 12.15234375 C12.96234375 12.80332031 13.5965625 13.45429688 14.25 14.125 C14.8996875 14.78371094 15.549375 15.44242187 16.21875 16.12109375 C17.81711727 17.74296643 19.41061897 19.3693281 21 21 C24.36335594 19.54254576 26.54534005 17.68882146 29.109375 15.0859375 C29.86347656 14.32539063 30.61757812 13.56484375 31.39453125 12.78125 C32.17183594 11.9871875 32.94914062 11.193125 33.75 10.375 C34.54277344 9.57320313 35.33554688 8.77140625 36.15234375 7.9453125 C38.10614493 5.96797154 40.05512103 3.98611091 42 2 C42.66 2.66 43.32 3.32 44 4 C43.56171875 4.36609375 43.1234375 4.7321875 42.671875 5.109375 C36.09553103 10.72332717 30.06349064 16.845557 24 23 C26.31299694 26.65668918 28.45791685 29.69780989 31.8125 32.4375 C35.76336933 35.75830574 39.40314684 39.30198534 43 43 C42.01 43.495 42.01 43.495 41 44 C38.72746632 43.0825362 36.61227599 42.11356954 34.4375 41 C33.80634277 40.67894287 33.17518555 40.35788574 32.52490234 40.02709961 C27.18568332 37.23474943 22.50096738 34.0212131 18 30 C17.31421875 29.39542969 16.6284375 28.79085938 15.921875 28.16796875 C8.48280111 21.19738615 3.00411675 12.34293908 -1 3 C-0.67 2.01 -0.34 1.02 0 0 Z " fill="#F1F1F1" transform="translate(150,286)"/>
<path d="M0 0 C0.17755156 7.17125415 0.30009977 14.3419415 0.38452148 21.51489258 C0.41971447 23.95456116 0.4674767 26.39408221 0.52807617 28.83325195 C0.61303959 32.34102755 0.65270137 35.84685169 0.68359375 39.35546875 C0.71972275 40.44522507 0.75585175 41.53498138 0.79307556 42.65776062 C0.79692587 50.09072775 0.79692587 50.09072775 -1.60494995 52.83120728 C-3.54272461 54.2277832 -3.54272461 54.2277832 -7 56 C-7.15235724 48.98937889 -7.25730221 41.97918587 -7.32958984 34.96728516 C-7.35972954 32.58300828 -7.40064931 30.19884198 -7.45263672 27.81494141 C-7.52557116 24.38416243 -7.55948577 20.9548513 -7.5859375 17.5234375 C-7.61690521 16.46071625 -7.64787292 15.397995 -7.67977905 14.30307007 C-7.68205774 9.27198509 -7.65278057 5.99449673 -4.02587891 2.27978516 C-1 0 -1 0 0 0 Z " fill="#FEFEFE" transform="translate(251,128)"/>
<path d="M0 0 C4.27876075 2.45632562 4.27876075 2.45632562 6 5 C6.80948552 8.17479072 6.7482469 10.81707281 6 14 C4.0625 17.0625 4.0625 17.0625 1 19 C-2.15790307 19.6799044 -4.84616468 19.71196655 -8 19 C-10.85838005 16.83878582 -11.77465717 15.33308076 -12.37109375 11.8046875 C-12.586002 7.85819055 -12.54047148 5.72062864 -10.125 2.5 C-6.55364345 -0.02095756 -4.39872846 -0.50754559 0 0 Z " fill="#F2F2F2" transform="translate(166,373)"/>
<path d="M0 0 C3.44171534 0.50420034 5.20873649 1.74092174 7.453125 4.359375 C7.453125 5.349375 7.453125 6.339375 7.453125 7.359375 C5.803125 7.359375 4.153125 7.359375 2.453125 7.359375 C2.453125 6.699375 2.453125 6.039375 2.453125 5.359375 C-0.186875 5.359375 -2.826875 5.359375 -5.546875 5.359375 C-5.876875 6.349375 -6.206875 7.339375 -6.546875 8.359375 C-5.79921875 8.52953125 -5.0515625 8.6996875 -4.28125 8.875 C-3.29640625 9.11734375 -2.3115625 9.3596875 -1.296875 9.609375 C0.16492188 9.95742188 0.16492188 9.95742188 1.65625 10.3125 C4.81941059 11.49647631 6.34697701 12.74145273 8.453125 15.359375 C9.03651057 18.85968842 8.85768022 20.62732269 7.140625 23.734375 C2.79466474 26.36216493 -1.61510064 26.22024686 -6.546875 25.359375 C-9.734375 23.046875 -9.734375 23.046875 -11.546875 20.359375 C-11.546875 19.369375 -11.546875 18.379375 -11.546875 17.359375 C-9.171875 17.171875 -9.171875 17.171875 -6.546875 17.359375 C-5.886875 18.349375 -5.226875 19.339375 -4.546875 20.359375 C-0.96330259 20.60953373 -0.96330259 20.60953373 2.453125 20.359375 C2.453125 19.039375 2.453125 17.719375 2.453125 16.359375 C1.77765625 16.18921875 1.1021875 16.0190625 0.40625 15.84375 C-9.22643301 13.22677831 -9.22643301 13.22677831 -11.546875 9.359375 C-11.4826685 6.21325665 -11.20990931 4.23515864 -9.29296875 1.703125 C-6.38182911 -0.53721513 -3.54788683 -0.10373938 0 0 Z " fill="#EEEEEE" transform="translate(142.546875,366.640625)"/>
<path d="M0 0 C3.125 2.375 3.125 2.375 5 5 C5 5.66 5 6.32 5 7 C2.625 7.125 2.625 7.125 0 7 C-0.66 6.34 -1.32 5.68 -2 5 C-5.08347826 4.83318891 -5.08347826 4.83318891 -8 5 C-8 5.99 -8 6.98 -8 8 C-7.24074219 8.25394531 -6.48148438 8.50789063 -5.69921875 8.76953125 C-4.70535156 9.11371094 -3.71148437 9.45789063 -2.6875 9.8125 C-1.20830078 10.31716797 -1.20830078 10.31716797 0.30078125 10.83203125 C2.9088947 11.96057817 4.34816709 12.70893038 6 15 C5.89036707 21.13944433 5.89036707 21.13944433 3.25 23.69140625 C-0.65333756 25.96157653 -4.62435712 25.64326899 -9 25 C-12.125 23.25 -12.125 23.25 -14 21 C-14 19.68 -14 18.36 -14 17 C-11.625 16.8125 -11.625 16.8125 -9 17 C-8.34 17.99 -7.68 18.98 -7 20 C-3.41642759 20.25015873 -3.41642759 20.25015873 0 20 C0.33 18.68 0.66 17.36 1 16 C0.25234375 15.82984375 -0.4953125 15.6596875 -1.265625 15.484375 C-2.25046875 15.24203125 -3.2353125 14.9996875 -4.25 14.75 C-5.71179688 14.40195312 -5.71179688 14.40195312 -7.203125 14.046875 C-10.35609976 12.86671126 -11.88304101 11.59179092 -14 9 C-14.6407669 5.79616552 -14.2921273 4.49130501 -12.625 1.6875 C-8.57915456 -0.91340064 -4.66895752 -0.89758634 0 0 Z " fill="#34ABEF" transform="translate(238,367)"/>
<path d="M0 0 C6.6 0.66 13.2 1.32 20 2 C20 7.94 20 13.88 20 20 C18.30729167 18.50260417 16.61458333 17.00520833 14.921875 15.5078125 C13.02138331 14.01677633 11.16806442 13.04461286 9 12 C8.37432129 12.63615234 7.74864258 13.27230469 7.10400391 13.92773438 C4.78588745 16.27988376 2.46337209 18.62750298 0.13769531 20.97216797 C-0.86899728 21.98893399 -1.87388966 23.00748562 -2.87695312 24.02783203 C-4.31694371 25.49201218 -5.76323256 26.94970205 -7.2109375 28.40625 C-8.08024902 29.28603516 -8.94956055 30.16582031 -9.84521484 31.07226562 C-12 33 -12 33 -14 33 C-12.48623919 29.43235715 -10.39486871 27.16293713 -7.6484375 24.453125 C-6.37226563 23.18662109 -6.37226563 23.18662109 -5.0703125 21.89453125 C-4.18085938 21.02183594 -3.29140625 20.14914062 -2.375 19.25 C-1.4778125 18.36183594 -0.580625 17.47367187 0.34375 16.55859375 C2.55807004 14.36783031 4.77692435 12.18187237 7 10 C5.23760158 5.83433101 3.15395214 3.78474257 0 0 Z " fill="#FCFCFC" transform="translate(215,300)"/>
<path d="M0 0 C2.1640625 0.60546875 2.1640625 0.60546875 4.7265625 2.85546875 C6.1640625 5.60546875 6.1640625 5.60546875 6.1640625 10.60546875 C1.5440625 10.60546875 -3.0759375 10.60546875 -7.8359375 10.60546875 C-6.8459375 12.09046875 -6.8459375 12.09046875 -5.8359375 13.60546875 C-2.00388968 13.94609522 1.43294805 13.48337803 5.1640625 12.60546875 C4.01232895 15.07346922 3.11622685 16.6533044 1.1640625 18.60546875 C-1.91512256 19.23461462 -4.7544636 19.21113776 -7.8359375 18.60546875 C-10.47430672 16.85059014 -11.18650984 15.47866532 -12.8359375 12.60546875 C-13.43220565 8.95332636 -13.11390305 7.18787277 -11.5234375 3.85546875 C-8.05018137 -0.77553943 -5.29088468 -0.73245146 0 0 Z " fill="#32A5E7" transform="translate(278.8359375,373.39453125)"/>
<path d="M0 0 C2.875 1.625 2.875 1.625 5 5 C5.42010403 9.69559311 5.28626286 14.29892774 5 19 C2.70858714 19.05384521 0.41681812 19.09272087 -1.875 19.125 C-3.15117187 19.14820313 -4.42734375 19.17140625 -5.7421875 19.1953125 C-9 19 -9 19 -11 17 C-11.375 14.0625 -11.375 14.0625 -11 11 C-8.0060264 7.52699062 -4.39195091 7.42230297 0 7 C-0.33 6.34 -0.66 5.68 -1 5 C-5.455 5.495 -5.455 5.495 -10 6 C-8.52015735 0.08062939 -5.7603879 -0.80645431 0 0 Z " fill="#33A8EC" transform="translate(351,373)"/>
<path d="M0 0 C1.65 0 3.3 0 5 0 C5.33 2.31 5.66 4.62 6 7 C6.33 6.67 6.66 6.34 7 6 C13.6 6.6 13.6 6.6 16 9 C16.14507695 11.74485593 16.18652423 14.38480543 16.125 17.125 C16.11597656 17.87910156 16.10695313 18.63320313 16.09765625 19.41015625 C16.0740687 21.27357254 16.03819719 23.13682593 16 25 C14.68 25 13.36 25 12 25 C11.67 20.05 11.34 15.1 11 10 C9.35 10.33 7.7 10.66 6 11 C5.67 15.62 5.34 20.24 5 25 C3.35 25 1.7 25 0 25 C0 16.75 0 8.5 0 0 Z " fill="#32A3E4" transform="translate(247,367)"/>
<path d="M0 0 C0.66 0.33 1.32 0.66 2 1 C-3.91781611 8.08470943 -10.43141333 14.52848604 -17 21 C-16.67 21.99 -16.34 22.98 -16 24 C-16.73863281 24.08121094 -17.47726563 24.16242188 -18.23828125 24.24609375 C-21.61131621 25.16687981 -22.85155881 26.50064573 -25.1875 29.0625 C-26.4238203 30.40755975 -27.68805148 31.72859735 -29 33 C-29.66 33 -30.32 33 -31 33 C-26.4056764 17.91383165 -15.72430147 8.8040408 -2.46875 1.1171875 C-1.6540625 0.74851563 -0.839375 0.37984375 0 0 Z " fill="#E8E8E8" transform="translate(191,132)"/>
<path d="M0 0 C2.31 0 4.62 0 7 0 C7 8.25 7 16.5 7 25 C6.34 25 5.68 25 5 25 C4.731875 25.61875 4.46375 26.2375 4.1875 26.875 C3 29 3 29 0 31 C0 20.77 0 10.54 0 0 Z " fill="#FEFEFE" transform="translate(244,101)"/>
<path d="M0 0 C2.475 0.495 2.475 0.495 5 1 C5.99 3.97 6.98 6.94 8 10 C9.32 6.7 10.64 3.4 12 0 C13.32 0 14.64 0 16 0 C14.93130033 5.6349619 13.43588884 11.01772953 11.5625 16.4375 C11.15128906 17.63246094 10.74007813 18.82742188 10.31640625 20.05859375 C9 23 9 23 6 25 C3.3125 25.125 3.3125 25.125 1 25 C1 23.68 1 22.36 1 21 C2.32 21 3.64 21 5 21 C4.50268028 15.4051532 2.88957376 10.67592459 0.83984375 5.453125 C0 3 0 3 0 0 Z " fill="#34A9ED" transform="translate(321,374)"/>
<path d="M0 0 C1.65 0 3.3 0 5 0 C5.33 4.62 5.66 9.24 6 14 C7.65 14.33 9.3 14.66 11 15 C11.33 10.38 11.66 5.76 12 1 C13.32 1 14.64 1 16 1 C16 6.94 16 12.88 16 19 C14.35 18.67 12.7 18.34 11 18 C10.67 18.33 10.34 18.66 10 19 C6.625 19.3125 6.625 19.3125 3 19 C0.23842799 16.52779545 0.00464428 15.05820828 -0.29296875 11.328125 C-0.27316751 9.96843965 -0.23759202 8.6089066 -0.1875 7.25 C-0.17396484 6.55261719 -0.16042969 5.85523438 -0.14648438 5.13671875 C-0.1112945 3.42414459 -0.05749155 1.71197059 0 0 Z " fill="#E1E1E1" transform="translate(195,373)"/>
<path d="M0 0 C2.45391569 3.68087353 2.22802759 6.44355588 2.125 10.6875 C2.11597656 11.38939453 2.10695312 12.09128906 2.09765625 12.81445312 C2.07413704 14.54311525 2.03826713 16.27160145 2 18 C0.35 18 -1.3 18 -3 18 C-3.33 13.38 -3.66 8.76 -4 4 C-5.65 4.33 -7.3 4.66 -9 5 C-9.33 9.29 -9.66 13.58 -10 18 C-11.32 18 -12.64 18 -14 18 C-14 12.06 -14 6.12 -14 0 C-8.46328562 -0.7909592 -5.24204479 -1.2334223 0 0 Z " fill="#E6E6E6" transform="translate(190,374)"/>
<path d="M0 0 C1.65 0 3.3 0 5 0 C5 1.98 5 3.96 5 6 C5.99 6 6.98 6 8 6 C8 7.32 8 8.64 8 10 C7.01 10 6.02 10 5 10 C5 13.63 5 17.26 5 21 C5.99 21 6.98 21 8 21 C8 22.32 8 23.64 8 25 C5.125 25.125 5.125 25.125 2 25 C0 23 0 23 -0.1953125 19.9609375 C-0.16050781 18.18589844 -0.16050781 18.18589844 -0.125 16.375 C-0.10695313 15.18648438 -0.08890625 13.99796875 -0.0703125 12.7734375 C-0.04710937 11.85820312 -0.02390625 10.94296875 0 10 C-0.99 10 -1.98 10 -3 10 C-3 8.68 -3 7.36 -3 6 C-2.01 6 -1.02 6 0 6 C0 4.02 0 2.04 0 0 Z " fill="#32A3E5" transform="translate(302,367)"/>
<path d="M0 0 C1.65 0 3.3 0 5 0 C5 2.31 5 4.62 5 7 C5.99 7 6.98 7 8 7 C8 7.99 8 8.98 8 10 C7.01 10 6.02 10 5 10 C5 13.63 5 17.26 5 21 C5.99 21 6.98 21 8 21 C8 22.32 8 23.64 8 25 C5.125 25.125 5.125 25.125 2 25 C0 23 0 23 -0.1953125 19.9609375 C-0.17210937 18.77757812 -0.14890625 17.59421875 -0.125 16.375 C-0.10695313 15.18648438 -0.08890625 13.99796875 -0.0703125 12.7734375 C-0.04710937 11.85820312 -0.02390625 10.94296875 0 10 C-0.66 10 -1.32 10 -2 10 C-2 8.68 -2 7.36 -2 6 C-1.34 6 -0.68 6 0 6 C0 4.02 0 2.04 0 0 Z " fill="#33A6E8" transform="translate(289,367)"/>
<path d="M0 0 C1.32 0 2.64 0 4 0 C4 1.65 4 3.3 4 5 C4.804375 4.2575 4.804375 4.2575 5.625 3.5 C8.59358445 1.62510456 10.55312427 1.76498575 14 2 C14.33 3.32 14.66 4.64 15 6 C14.01 6 13.02 6 12 6 C12 5.01 12 4.02 12 3 C9.21611025 4.70625501 8.14615794 5.47626739 7.25 8.6875 C7.1675 9.450625 7.085 10.21375 7 11 C10.27773504 10.24849977 10.27773504 10.24849977 12 7 C12.66 7 13.32 7 14 7 C14.33 9.64 14.66 12.28 15 15 C14.278125 14.690625 13.55625 14.38125 12.8125 14.0625 C10.19692691 13.07439461 7.74881018 12.4712246 5 12 C4.67 10.68 4.34 9.36 4 8 C3.01 8 2.02 8 1 8 C0.7525 8.639375 0.505 9.27875 0.25 9.9375 C-1 12 -1 12 -2.875 12.875 C-5.47386397 13.02787435 -6.8019253 12.33454536 -9 11 C-8.34 10.34 -7.68 9.68 -7 9 C-6.28072705 6.68234271 -5.6090107 4.34904126 -5 2 C-4.34 2 -3.68 2 -3 2 C-2.67 4.64 -2.34 7.28 -2 10 C-1.30732799 7.66223195 -1 5.76838497 -1 3.3125 C-1 1 -1 1 0 0 Z " fill="#8FD4FB" transform="translate(267,226)"/>
<path d="M0 0 C0 1.65 0 3.3 0 5 C-1.65 5.66 -3.3 6.32 -5 7 C-5.33 10.96 -5.66 14.92 -6 19 C-7.32 19 -8.64 19 -10 19 C-10 13.06 -10 7.12 -10 1 C-3 0 -3 0 0 0 Z " fill="#36B0F6" transform="translate(370,373)"/>
<path d="M0 0 C6.6 0.66 13.2 1.32 20 2 C18.02 2.99 18.02 2.99 16 4 C14.58500807 5.25552241 13.21816579 6.56640745 11.890625 7.9140625 C11.13652344 8.67460937 10.38242188 9.43515625 9.60546875 10.21875 C8.82816406 11.0128125 8.05085937 11.806875 7.25 12.625 C6.45722656 13.42679687 5.66445312 14.22859375 4.84765625 15.0546875 C2.89385507 17.03202846 0.94487897 19.01388909 -1 21 C-1.66 20.67 -2.32 20.34 -3 20 C0.3 16.7 3.6 13.4 7 10 C4.89502364 5.40831505 4.89502364 5.40831505 0 0 Z " fill="#E7E7E7" transform="translate(215,300)"/>
<path d="M0 0 C-5.61 5.61 -11.22 11.22 -17 17 C-18.32 16.34 -19.64 15.68 -21 15 C-18.22564694 8.59656894 -7.29981479 -2.4332716 0 0 Z " fill="#F2F2F2" transform="translate(190,135)"/>
<path d="M0 0 C1.65 0 3.3 0 5 0 C5 6.27 5 12.54 5 19 C3.35 19 1.7 19 0 19 C0 12.73 0 6.46 0 0 Z " fill="#309EDD" transform="translate(313,373)"/>
<path d="M0 0 C2.4375 0.8125 2.4375 0.8125 4.4375 2.8125 C3.86057692 9.38942308 3.86057692 9.38942308 2.4375 10.8125 C-0.5 11.0625 -0.5 11.0625 -3.5625 10.8125 C-5.71752531 7.57996204 -6.03106135 6.56099077 -5.5625 2.8125 C-3.86282344 0.12880016 -3.19877434 -0.23405666 0 0 Z " fill="#121212" transform="translate(163.5625,377.1875)"/>
<path d="M0 0 C3 -0.3125 3 -0.3125 6 0 C8 2 8 2 8.1953125 5.6953125 C8.182009 7.17200108 8.15814835 8.64862358 8.125 10.125 C8.11597656 10.87910156 8.10695313 11.63320313 8.09765625 12.41015625 C8.0740687 14.27357254 8.03819719 16.13682593 8 18 C6.68 18 5.36 18 4 18 C3.67 13.05 3.34 8.1 3 3 C1.35 3 -0.3 3 -2 3 C-1.34 2.01 -0.68 1.02 0 0 Z " fill="#37B3FA" transform="translate(255,374)"/>
<path d="M0 0 C2.31 0 4.62 0 7 0 C6.52433594 1.02673828 6.52433594 1.02673828 6.0390625 2.07421875 C4.85883043 5.39750379 4.58802755 8.29754535 4.375 11.8125 C4.26285156 13.55466797 4.26285156 13.55466797 4.1484375 15.33203125 C4.09945312 16.21246094 4.05046875 17.09289062 4 18 C2.68 18 1.36 18 0 18 C0 12.06 0 6.12 0 0 Z " fill="#FBFBFB" transform="translate(176,374)"/>
<path d="M0 0 C1.32 0 2.64 0 4 0 C4 5.94 4 11.88 4 18 C2.68 18 1.36 18 0 18 C-1.50875941 11.96496237 -0.64186094 6.10261631 0 0 Z " fill="#FDFDFD" transform="translate(207,374)"/>
<path d="M0 0 C0.33 0.66 0.66 1.32 1 2 C0.34 1.67 -0.32 1.34 -1 1 C-0.67 0.67 -0.34 0.34 0 0 Z M-14 12 C-13.01 12.33 -12.02 12.66 -11 13 C-12.78572252 14.83947337 -14.57802449 16.67157741 -16.375 18.5 C-16.88289062 19.02464844 -17.39078125 19.54929687 -17.9140625 20.08984375 C-19.23832604 21.43153181 -20.61605865 22.71995815 -22 24 C-22.66 24 -23.32 24 -24 24 C-22.52278578 20.54798361 -20.56205999 18.35038064 -17.875 15.75 C-17.15054688 15.04359375 -16.42609375 14.3371875 -15.6796875 13.609375 C-15.12539062 13.07828125 -14.57109375 12.5471875 -14 12 Z " fill="#F3F3F3" transform="translate(225,309)"/>
<path d="M0 0 C1.95825873 -0.02694851 3.91662226 -0.04637218 5.875 -0.0625 C6.96554687 -0.07410156 8.05609375 -0.08570313 9.1796875 -0.09765625 C12 0 12 0 14 1 C13.67 1.66 13.34 2.32 13 3 C10.49609375 3.4140625 10.49609375 3.4140625 7.4375 3.625 C6.42558594 3.69976562 5.41367187 3.77453125 4.37109375 3.8515625 C3.58863281 3.90054687 2.80617188 3.94953125 2 4 C1.34 2.68 0.68 1.36 0 0 Z " fill="#030C11" transform="translate(271,384)"/>
<path d="M0 0 C0 0.99 0 1.98 0 3 C0.99 3 1.98 3 3 3 C3.33 2.34 3.66 1.68 4 1 C4 1.99 4 2.98 4 4 C3.38125 4.103125 2.7625 4.20625 2.125 4.3125 C-0.36526484 4.87525373 -0.36526484 4.87525373 -2 8 C-2.99 8 -3.98 8 -5 8 C-5.36625971 3.48279689 -5.36625971 3.48279689 -3.625 1.1875 C-2 0 -2 0 0 0 Z " fill="#3FAEEF" transform="translate(279,229)"/>
<path d="M0 0 C2.8125 0.1875 2.8125 0.1875 5 1 C4.43539062 1.07089844 3.87078125 1.14179688 3.2890625 1.21484375 C0.14638089 2.29279427 -1.36769754 4.15043265 -3.625 6.5625 C-5.04700295 8.07662607 -6.49825153 9.56493148 -8 11 C-8.66 11 -9.32 11 -10 11 C-9.34 9.02 -8.68 7.04 -8 5 C-7.01 5 -6.02 5 -5 5 C-3.824375 3.7315625 -3.824375 3.7315625 -2.625 2.4375 C-1.325625 1.2309375 -1.325625 1.2309375 0 0 Z " fill="#E2E2E2" transform="translate(170,154)"/>
<path d="M0 0 C0.495 0.474375 0.99 0.94875 1.5 1.4375 C4.99468651 3.62167907 7.90966936 3.65913911 12 4 C12 4.33 12 4.66 12 5 C7.05 5.33 2.1 5.66 -3 6 C-2 4 -1 2 0 0 Z " fill="#D9D9D9" transform="translate(223,152)"/>
<path d="M0 0 C0.99 0.33 1.98 0.66 3 1 C2.04578192 2.14926266 1.08647955 3.29430541 0.125 4.4375 C-0.40867188 5.07558594 -0.94234375 5.71367187 -1.4921875 6.37109375 C-3 8 -3 8 -5 9 C-4.51386623 3.53099511 -4.51386623 3.53099511 -2.125 1.0625 C-1.42375 0.711875 -0.7225 0.36125 0 0 Z " fill="#F7F7F7" transform="translate(168,152)"/>
<path d="M0 0 C1.2065625 0.0309375 1.2065625 0.0309375 2.4375 0.0625 C2.1075 1.3825 1.7775 2.7025 1.4375 4.0625 C-0.2125 4.3925 -1.8625 4.7225 -3.5625 5.0625 C-3.5625 0.08689024 -3.5625 0.08689024 0 0 Z " fill="#040F15" transform="translate(348.5625,383.9375)"/>
<path d="M0 0 C0 0.66 0 1.32 0 2 C-7.42857143 3.28571429 -7.42857143 3.28571429 -11 2 C-10.67 1.34 -10.34 0.68 -10 0 C-6.35346727 -1.11421833 -3.66708957 -0.94296589 0 0 Z " fill="#06141D" transform="translate(351,378)"/>
<path d="M0 0 C3.71860179 1.53873177 4.35633541 2.47511388 7 6 C3.37 5.01 -0.26 4.02 -4 3 C-2.68 2.01 -1.36 1.02 0 0 Z " fill="#D3D3D3" transform="translate(197,231)"/>
<path d="M0 0 C2.5 -0.375 2.5 -0.375 5 0 C5.66 0.99 6.32 1.98 7 3 C4.03 3 1.06 3 -2 3 C-1.34 2.01 -0.68 1.02 0 0 Z " fill="#02070B" transform="translate(273,377)"/>
<path d="M0 0 C1.65 0 3.3 0 5 0 C5 1.32 5 2.64 5 4 C3.35 4 1.7 4 0 4 C0 2.68 0 1.36 0 0 Z " fill="#34AAEE" transform="translate(313,367)"/>
<path d="M0 0 C0.33 0 0.66 0 1 0 C1.6875 3.3125 1.6875 3.3125 2 7 C0.51953125 8.73046875 0.51953125 8.73046875 -1 10 C-1.02689216 8.52093108 -1.04634621 7.04172517 -1.0625 5.5625 C-1.07410156 4.73878906 -1.08570313 3.91507813 -1.09765625 3.06640625 C-1 1 -1 1 0 0 Z " fill="#44B4F5" transform="translate(265,227)"/>
<path d="M0 0 C0.33 1.32 0.66 2.64 1 4 C-1.97 4 -4.94 4 -8 4 C-5.33333333 2.66666667 -2.66666667 1.33333333 0 0 Z " fill="#DEDEDE" transform="translate(234,238)"/>
<path d="M0 0 C1.32 0 2.64 0 4 0 C4 1.65 4 3.3 4 5 C2.68 4.67 1.36 4.34 0 4 C0 2.68 0 1.36 0 0 Z " fill="#82CDF8" transform="translate(267,226)"/>
<path d="M0 0 C0.99 0.33 1.98 0.66 3 1 C1.37660195 2.70884005 -0.29319053 4.37446717 -2 6 C-2.66 6 -3.32 6 -4 6 C-2.84826645 3.53199953 -1.95216435 1.95216435 0 0 Z " fill="#E8E8E8" transform="translate(229,216)"/>
</svg>
